<?xml version="1.0" encoding="UTF-8" standalone="no"?>
<!-- Created with Inkscape (http://www.inkscape.org/) -->

<svg
   xmlns:dc="http://purl.org/dc/elements/1.1/"
   xmlns:cc="http://creativecommons.org/ns#"
   xmlns:rdf="http://www.w3.org/1999/02/22-rdf-syntax-ns#"
   xmlns:svg="http://www.w3.org/2000/svg"
   xmlns="http://www.w3.org/2000/svg"
   xmlns:sodipodi="http://sodipodi.sourceforge.net/DTD/sodipodi-0.dtd"
   xmlns:inkscape="http://www.inkscape.org/namespaces/inkscape"
   width="64"
   height="64"
   viewBox="0 0 16.933333 16.933333"
   version="1.1"
   id="svg8"
   inkscape:version="0.92.3 (2405546, 2018-03-11)"
   sodipodi:docname="08-Video tutorial.svg">
  <defs
     id="defs2" />
  <sodipodi:namedview
     id="base"
     pagecolor="#ffffff"
     bordercolor="#666666"
     borderopacity="1.0"
     inkscape:pageopacity="0.0"
     inkscape:pageshadow="2"
     inkscape:zoom="3.9999998"
     inkscape:cx="88.698088"
     inkscape:cy="-7.9849453"
     inkscape:document-units="px"
     inkscape:current-layer="layer2"
     showgrid="false"
     inkscape:snap-smooth-nodes="true"
     inkscape:snap-page="true"
     inkscape:snap-midpoints="false"
     inkscape:snap-intersection-paths="true"
     inkscape:object-paths="true"
     inkscape:object-nodes="true"
     units="px"
     inkscape:snap-bbox="true"
     inkscape:bbox-paths="false"
     inkscape:snap-bbox-midpoints="false"
     inkscape:window-width="1920"
     inkscape:window-height="1040"
     inkscape:window-x="0"
     inkscape:window-y="0"
     inkscape:window-maximized="1"
     inkscape:snap-grids="true"
     inkscape:snap-to-guides="false"
     inkscape:snap-bbox-edge-midpoints="false"
     inkscape:snap-nodes="true"
     inkscape:snap-others="false"
     inkscape:bbox-nodes="true"
     showguides="true"
     inkscape:guide-bbox="true"
     inkscape:measure-start="0,0"
     inkscape:measure-end="0,0"
     inkscape:snap-global="true">
    <inkscape:grid
       type="xygrid"
       id="grid815"
       enabled="true" />
  </sodipodi:namedview>
  <metadata
     id="metadata5">
    <rdf:RDF>
      <cc:Work
         rdf:about="">
        <dc:format>image/svg+xml</dc:format>
        <dc:type
           rdf:resource="http://purl.org/dc/dcmitype/StillImage" />
        <dc:title />
      </cc:Work>
    </rdf:RDF>
  </metadata>
  <g
     inkscape:groupmode="layer"
     id="layer2"
     inkscape:label="08-Video tutorial">
    <path
       style="opacity:1;fill:#a8c5f7;fill-opacity:1;stroke:none;stroke-width:1.99999988;stroke-linecap:butt;stroke-linejoin:round;stroke-miterlimit:4;stroke-dasharray:none;stroke-dashoffset:0;stroke-opacity:1"
       d="M 10,5 C 8.3380283,5 7,6.3380019 7,8 v 22 c 0,-1.662002 1.3379527,-3 3,-3 1.662009,0 3,1.337998 3,3 v 5.705078 c 0,0.463227 4,4.251976 4,5.767578 V 43 c 12.333337,1.1e-5 24.666663,0 37,0 1.662009,0 3,-1.337998 3,-3 V 8 C 57,6.3380019 55.662009,5 54,5 Z"
       transform="scale(0.26458333)"
       id="path3674"
       inkscape:connector-curvature="0"
       sodipodi:nodetypes="ccccccccccccc" />
    <path
       sodipodi:nodetypes="cccccccc"
       inkscape:connector-curvature="0"
       id="path3676"
       d="M 2.910417,10.318751 V 2.9104123 c 0,-0.293158 0.23601,-0.529167 0.52916,-0.529167 h 10.05417 c 0.29316,0 0.52917,0.236009 0.52917,0.529167 v 6.8791713 c 0,0.2931574 -0.23601,0.5291674 -0.52917,0.5291674 -3.52778,6e-6 -7.05555,10e-7 -10.58333,0 z"
       style="opacity:1;fill:#e2e7fa;fill-opacity:1;stroke:none;stroke-width:0.52916664;stroke-linecap:butt;stroke-linejoin:round;stroke-miterlimit:4;stroke-dasharray:none;stroke-dashoffset:0;stroke-opacity:1" />
    <path
       id="path3678"
       d="m 3.439577,2.3812503 c -0.29316,0 -0.52916,0.236009 -0.52916,0.529167 v 7.4083337 h 0.52916 V 3.4395832 c 0,-0.2931579 0.23601,-0.5291659 0.52917,-0.5291659 h 10.05417 c 0,-0.293158 -0.23601,-0.529167 -0.52917,-0.529167 z"
       style="opacity:1;fill:#c4d2f0;fill-opacity:1;stroke:none;stroke-width:0.52916664;stroke-linecap:butt;stroke-linejoin:round;stroke-miterlimit:4;stroke-dasharray:none;stroke-dashoffset:0;stroke-opacity:1"
       inkscape:connector-curvature="0"
       sodipodi:nodetypes="ccccccccc" />
    <path
       id="path3693"
       d="m 2.645827,1.3229143 c -0.43973,0 -0.79375,0.354013 -0.79375,0.79375 v 5.8208363 c 0,-0.346362 0.22101,-0.6368 0.52917,-0.745691 V 2.1166643 c 0,-0.439737 0.35401,-0.79375 0.79375,-0.79375 z"
       style="opacity:1;fill:#f8f8f8;fill-opacity:1;stroke:none;stroke-width:0.52916664;stroke-linecap:butt;stroke-linejoin:round;stroke-miterlimit:4;stroke-dasharray:none;stroke-dashoffset:0;stroke-opacity:1"
       inkscape:connector-curvature="0"
       sodipodi:nodetypes="ccccccc" />
    <path
       id="path3695"
       d="m 12.964577,2.3812503 c 0.29316,0 0.52917,0.236009 0.52917,0.529167 v 6.8791663 c 0,0.2931574 -0.23601,0.5291674 -0.52917,0.5291674 h 0.52917 c 0.29316,0 0.52917,-0.23601 0.52917,-0.5291674 V 2.9104173 c 0,-0.293158 -0.23601,-0.529167 -0.52917,-0.529167 z"
       style="opacity:1;fill:#f8f8f8;fill-opacity:1;stroke:none;stroke-width:0.52916664;stroke-linecap:butt;stroke-linejoin:round;stroke-miterlimit:4;stroke-dasharray:none;stroke-dashoffset:0;stroke-opacity:1"
       inkscape:connector-curvature="0"
       sodipodi:nodetypes="csscssssc" />
    <path
       style="fill:#e2e7fa;fill-opacity:1;stroke:none;stroke-width:0.52916664;stroke-linecap:butt;stroke-linejoin:round;stroke-miterlimit:4;stroke-dasharray:none;stroke-opacity:1"
       d="m 16.139567,7.5819666 v 2.251024 c 0,0.7502954 -0.79375,2.3378444 -0.79375,2.8670104 v 1.058333 h -4.01577 c 0,-0.47961 -0.55509,-1.071551 -0.55509,-2.116666 v -0.264584 h 4.30628 l 0.0052,-5.1769458 c 0.823085,0.164474 1.053165,0.8828874 1.053165,1.3818284 z"
       id="path3893"
       inkscape:connector-curvature="0"
       sodipodi:nodetypes="cccccccccc" />
    <path
       id="path3895"
       d="m 15.091577,6.2001382 c 0.81791,0.164474 1.048,0.8828874 1.048,1.3818284 v 2.251024 c 0,0.7502954 -0.79375,2.3378444 -0.79375,2.8670104 v 1.058333 h -0.52917 v -1.101741 c 0,-0.529166 0.79375,-2.116716 0.79375,-2.8670094 v -2.207617 c 0,-0.498941 -0.23008,-1.2173544 -1.048,-1.3818284 z"
       style="fill:#c4d2f0;fill-opacity:1;stroke:none;stroke-width:0.52916664;stroke-linecap:butt;stroke-linejoin:round;stroke-miterlimit:4;stroke-dasharray:none;stroke-opacity:1"
       inkscape:connector-curvature="0"
       sodipodi:nodetypes="ccccccccccc" />
    <path
       id="path3698"
       d="m 13.758327,1.3229173 c 0.43974,0 0.79375,0.354013 0.79375,0.79375 v 8.4666667 c 0,0.439738 -0.35401,0.79375 -0.79375,0.79375 h 0.52917 c 0.43974,0 0.79375,-0.354012 0.79375,-0.79375 V 2.1166673 c 0,-0.439737 -0.35401,-0.79375 -0.79375,-0.79375 z"
       style="opacity:1;fill:#91b8fb;fill-opacity:1;stroke:none;stroke-width:0.52916664;stroke-linecap:butt;stroke-linejoin:round;stroke-miterlimit:4;stroke-dasharray:none;stroke-dashoffset:0;stroke-opacity:1"
       inkscape:connector-curvature="0"
       sodipodi:nodetypes="ccccccccc" />
    <path
       id="path3897"
       d="m 15.081237,7.9375006 v 3.7486084 c -0.0262,0.07425 -0.0527,0.149893 -0.0765,0.220142 h -2.56935 v -0.933277 c 0,-0.401003 1.05833,-1.4034434 1.05833,-1.5260054 v -1.509468 c 0,-0.439738 0.35402,-0.79375 0.79376,-0.79375 0.43975,0 0.79376,0.354012 0.79376,0.79375 z"
       style="opacity:1;fill:#e2e7fa;fill-opacity:1;stroke:none;stroke-width:0.52916664;stroke-linecap:round;stroke-linejoin:round;stroke-miterlimit:4;stroke-dasharray:none;stroke-dashoffset:0;stroke-opacity:1"
       inkscape:connector-curvature="0"
       sodipodi:nodetypes="ccccccccc" />
    <path
       sodipodi:nodetypes="scssccsccsss"
       inkscape:connector-curvature="0"
       id="path3899"
       d="m 14.287487,7.1437506 c 0.0934,0 0.18151,0.0187 0.26459,0.04806 -0.30816,0.108892 -0.52917,0.399329 -0.52917,0.745691 v 1.673283 c 0,0.122561 -1.05833,1.1250024 -1.05833,1.5260054 v 0.769462 c 0,0.146579 -0.11801,0.264583 -0.26459,0.264583 -0.14658,0 -0.26458,-1e-6 -0.26458,-1e-6 v -1.197859 c 0,-0.401003 1.05833,-1.4034434 1.05833,-1.5260054 v -1.509468 c 0,-0.439738 0.35402,-0.79375 0.79375,-0.793751 z"
       style="opacity:1;fill:#f8f8f8;fill-opacity:1;stroke:none;stroke-width:0.52916664;stroke-linecap:round;stroke-linejoin:round;stroke-miterlimit:4;stroke-dasharray:none;stroke-dashoffset:0;stroke-opacity:1" />
    <path
       sodipodi:nodetypes="sccscccs"
       inkscape:connector-curvature="0"
       id="path3903"
       d="m 14.287487,7.1437506 c 0.43974,0 0.79375,0.354012 0.79375,0.79375 0,0.705556 0,0.881944 0,1.5875 0,0.146578 -0.118,0.264583 -0.26458,0.264583 -0.14658,0 -0.26458,-0.118005 -0.26458,-0.264583 0,-0.705556 0,-0.881944 0,-1.5875 0,-0.346362 -0.22101,-0.6368 -0.52917,-0.745691 0.0831,-0.02936 0.17121,-0.04806 0.26458,-0.04806 z"
       style="opacity:1;fill:#c4d2f0;fill-opacity:1;stroke:none;stroke-width:0.52916664;stroke-linecap:round;stroke-linejoin:round;stroke-miterlimit:4;stroke-dasharray:none;stroke-dashoffset:0;stroke-opacity:1" />
    <path
       transform="scale(-1,1)"
       style="opacity:1;fill:#a8c5f7;fill-opacity:1;stroke:none;stroke-width:0.52916664;stroke-linecap:butt;stroke-linejoin:round;stroke-miterlimit:4;stroke-dasharray:none;stroke-dashoffset:0;stroke-opacity:1"
       d="m -15.081246,13.758329 h 3.704189 c 0.293152,0 0.529156,0.236004 0.529156,0.529156 v 1.322938 c 0,0.293152 -0.236004,0.529156 -0.529156,0.529156 h -3.704189 c -0.293153,0 -0.529156,-0.236004 -0.529156,-0.529156 v -1.322938 c 0,-0.293152 0.236003,-0.529156 0.529156,-0.529156 z"
       id="rect3905"
       inkscape:connector-curvature="0"
       sodipodi:nodetypes="ccccccccc" />
    <path
       id="path3907"
       d="m 11.906237,13.758334 c -0.29315,0 -0.52916,0.236014 -0.52916,0.529167 v 1.322916 c 0,0.293153 0.23601,0.529167 0.52916,0.529167 h -0.52916 c -0.29316,0 -0.52917,-0.236014 -0.52917,-0.529167 v -1.322916 c 0,-0.293153 0.23601,-0.529167 0.52917,-0.529167 z"
       style="opacity:1;fill:#f8f8f8;fill-opacity:1;stroke:none;stroke-width:0.52916664;stroke-linecap:butt;stroke-linejoin:round;stroke-miterlimit:4;stroke-dasharray:none;stroke-dashoffset:0;stroke-opacity:1"
       inkscape:connector-curvature="0"
       sodipodi:nodetypes="ccccccccc" />
    <path
       inkscape:connector-curvature="0"
       style="opacity:1;fill:#91b8fb;fill-opacity:1;stroke:none;stroke-width:0.52916664;stroke-linecap:butt;stroke-linejoin:round;stroke-miterlimit:4;stroke-dasharray:none;stroke-dashoffset:0;stroke-opacity:1"
       d="m 14.552077,13.758334 c 0.29315,0 0.52916,0.236014 0.52916,0.529167 v 1.322916 c 0,0.293153 -0.23601,0.529167 -0.52916,0.529167 h 0.52916 c 0.29316,0 0.52917,-0.236014 0.52917,-0.529167 v -1.322916 c 0,-0.293153 -0.23601,-0.529167 -0.52917,-0.529167 z"
       id="path3909"
       sodipodi:nodetypes="ccccccccc" />
    <path
       sodipodi:nodetypes="cccccccccc"
       inkscape:connector-curvature="0"
       id="path3682"
       d="m 0.79375,7.581967 v 2.251025 c 0,0.750294 0.79375,2.337843 0.79375,2.867009 v 1.058333 h 4.01578 c 0,-0.47961 0.55508,-1.071551 0.55508,-2.116666 V 11.377084 H 1.85208 L 1.846915,6.200139 C 1.02383,6.364613 0.79375,7.083026 0.79375,7.581967 Z"
       style="fill:#e2e7fa;fill-opacity:1;stroke:none;stroke-width:0.52916664;stroke-linecap:butt;stroke-linejoin:round;stroke-miterlimit:4;stroke-dasharray:none;stroke-opacity:1" />
    <path
       inkscape:connector-curvature="0"
       style="fill:#f8f8f8;fill-opacity:1;stroke:none;stroke-width:0.52916664;stroke-linecap:butt;stroke-linejoin:round;stroke-miterlimit:4;stroke-dasharray:none;stroke-opacity:1"
       d="m 1.84174,6.200139 c -0.81791,0.164474 -1.048,0.882887 -1.048,1.381828 v 2.251025 c 0,0.750294 0.79375,2.337843 0.79375,2.867009 v 1.058333 h 0.52917 v -1.101741 c 0,-0.529166 -0.79375,-2.116716 -0.79375,-2.867009 V 7.581967 c 0,-0.498941 0.23008,-1.217354 1.048,-1.381828 z"
       id="path3684"
       sodipodi:nodetypes="ccccccccccc" />
    <path
       inkscape:connector-curvature="0"
       style="opacity:1;fill:#e2e7fa;fill-opacity:1;stroke:none;stroke-width:0.52916664;stroke-linecap:round;stroke-linejoin:round;stroke-miterlimit:4;stroke-dasharray:none;stroke-dashoffset:0;stroke-opacity:1"
       d="m 1.85208,7.937501 v 3.748608 c 0.0262,0.07425 0.0527,0.149893 0.0765,0.220142 H 4.49793 V 10.972974 C 4.49793,10.571971 3.4396,9.569531 3.4396,9.446969 V 7.937501 c 0,-0.439738 -0.35402,-0.79375 -0.79376,-0.79375 -0.43975,0 -0.79376,0.354012 -0.79376,0.79375 z"
       id="path3686"
       sodipodi:nodetypes="ccccccccc" />
    <path
       style="opacity:1;fill:#c4d2f0;fill-opacity:1;stroke:none;stroke-width:0.52916664;stroke-linecap:round;stroke-linejoin:round;stroke-miterlimit:4;stroke-dasharray:none;stroke-dashoffset:0;stroke-opacity:1"
       d="m 2.64583,7.143751 c -0.0934,0 -0.18151,0.0187 -0.26459,0.04806 0.30816,0.108892 0.52917,0.399329 0.52917,0.745691 v 1.673283 c 0,0.122561 1.05833,1.125002 1.05833,1.526005 v 0.769462 c 0,0.146579 0.11801,0.264583 0.26459,0.264583 0.14658,0 0.26458,-1e-6 0.26458,-1e-6 v -1.197859 c 0,-0.401003 -1.05833,-1.403443 -1.05833,-1.526005 V 7.937502 c 0,-0.439738 -0.35402,-0.79375 -0.79375,-0.793751 z"
       id="path3689"
       inkscape:connector-curvature="0"
       sodipodi:nodetypes="scssccsccsss" />
    <path
       style="opacity:1;fill:#f8f8f8;fill-opacity:1;stroke:none;stroke-width:0.52916664;stroke-linecap:round;stroke-linejoin:round;stroke-miterlimit:4;stroke-dasharray:none;stroke-dashoffset:0;stroke-opacity:1"
       d="m 2.64583,7.143751 c -0.43974,0 -0.79375,0.354012 -0.79375,0.79375 v 1.5875 c 0,0.146579 0.118,0.264583 0.26458,0.264583 0.14658,0 0.26458,-0.118004 0.26458,-0.264583 v -1.5875 C 2.38124,7.591139 2.60225,7.300702 2.91041,7.19181 2.82731,7.16245 2.7392,7.14375 2.64583,7.143751 Z"
       id="path3691"
       inkscape:connector-curvature="0"
       sodipodi:nodetypes="cccccccc" />
    <path
       style="opacity:1;fill:#a8c5f7;fill-opacity:1;stroke:none;stroke-width:0.52916664;stroke-linecap:butt;stroke-linejoin:round;stroke-miterlimit:4;stroke-dasharray:none;stroke-dashoffset:0;stroke-opacity:1"
       d="m 1.85207,13.75833 h 3.7041887 c 0.2931525,0 0.5291561,0.236004 0.5291561,0.529156 v 1.322938 c 0,0.293152 -0.2360036,0.529156 -0.5291561,0.529156 H 1.85207 c -0.2931524,0 -0.529156,-0.236004 -0.529156,-0.529156 v -1.322938 c 0,-0.293152 0.2360036,-0.529156 0.529156,-0.529156 z"
       id="rect3700" />
    <path
       style="fill:#c4d2f0;fill-opacity:1;stroke:none;stroke-width:0.52916664;stroke-linecap:butt;stroke-linejoin:round;stroke-miterlimit:4;stroke-dasharray:none;stroke-opacity:1"
       d="m 5.62911,11.377084 v 0.264584 c 0,1.045115 -0.555,1.637056 -0.555,2.116666 h 0.52917 c 0,-0.47961 0.555,-1.071551 0.555,-2.116666 v -0.264584 z"
       id="path3935"
       inkscape:connector-curvature="0"
       sodipodi:nodetypes="ccccccc" />
    <path
       inkscape:connector-curvature="0"
       style="opacity:1;fill:#91b8fb;fill-opacity:1;stroke:none;stroke-width:0.52916664;stroke-linecap:butt;stroke-linejoin:round;stroke-miterlimit:4;stroke-dasharray:none;stroke-dashoffset:0;stroke-opacity:1"
       d="m 5.02708,13.758334 c 0.29315,0 0.52916,0.236014 0.52916,0.529167 v 1.322916 c 0,0.293153 -0.23601,0.529167 -0.52916,0.529167 h 0.52916 c 0.29316,0 0.52917,-0.236014 0.52917,-0.529167 v -1.322916 c 0,-0.293153 -0.23601,-0.529167 -0.52917,-0.529167 z"
       id="path3702" />
    <path
       id="path3705"
       d="m 2.38124,13.758334 c -0.29315,0 -0.52916,0.236014 -0.52916,0.529167 v 1.322916 c 0,0.293153 0.23601,0.529167 0.52916,0.529167 H 1.85208 c -0.29316,0 -0.52917,-0.236014 -0.52917,-0.529167 v -1.322916 c 0,-0.293153 0.23601,-0.529167 0.52917,-0.529167 z"
       style="opacity:1;fill:#f8f8f8;fill-opacity:1;stroke:none;stroke-width:0.52916664;stroke-linecap:butt;stroke-linejoin:round;stroke-miterlimit:4;stroke-dasharray:none;stroke-dashoffset:0;stroke-opacity:1"
       inkscape:connector-curvature="0" />
    <path
       sodipodi:nodetypes="ccccccc"
       inkscape:connector-curvature="0"
       id="path3941"
       d="m 11.364157,11.377084 v 0.264584 c 0,1.045115 0.55501,1.637056 0.55501,2.116666 h -0.52917 c 0,-0.47961 -0.555,-1.071551 -0.555,-2.116666 v -0.264584 z"
       style="fill:#c4d2f0;fill-opacity:1;stroke:none;stroke-width:0.52916664;stroke-linecap:butt;stroke-linejoin:round;stroke-miterlimit:4;stroke-dasharray:none;stroke-opacity:1" />
    <path
       style="opacity:1;fill:#a8c5f7;fill-opacity:1;stroke:none;stroke-width:0.52916664;stroke-linecap:round;stroke-linejoin:round;stroke-miterlimit:4;stroke-dasharray:none;stroke-dashoffset:0;stroke-opacity:1"
       d="m 10.847909,8.7312527 c 0,0.2922487 -0.236914,0.5291631 -0.529163,0.5291632 -0.292249,2e-7 -0.5291636,-0.2369143 -0.5291636,-0.5291632 0,-0.2922489 0.2369146,-0.5291634 0.5291636,-0.5291632 0.292249,1e-7 0.529163,0.2369145 0.529163,0.5291632 z"
       id="circle4072"
       inkscape:connector-curvature="0"
       sodipodi:nodetypes="ccccc" />
    <path
       inkscape:connector-curvature="0"
       style="opacity:1;fill:#a8c5f7;fill-opacity:1;stroke:none;stroke-width:0.5291667;stroke-linecap:round;stroke-linejoin:round;stroke-miterlimit:4;stroke-dasharray:none;stroke-dashoffset:0;stroke-opacity:1"
       d="m 7.651537,5.2135882 c 0.63637,0.2741851 1.07971,0.906027 1.07971,1.6452241 v 0.3256413 c 0,0.270608 -0.21785,0.488463 -0.48846,0.488463 h -3.25641 c -0.27061,0 -0.48846,-0.217855 -0.48846,-0.488463 V 6.8588123 c 0,-0.7392921 0.44345,-1.371202 1.07995,-1.6453299 z"
       id="path4009"
       sodipodi:nodetypes="ccccccccc" />
    <path
       style="opacity:1;fill:#91b8fb;fill-opacity:1;stroke:none;stroke-width:0.5291667;stroke-linecap:round;stroke-linejoin:round;stroke-miterlimit:4;stroke-dasharray:none;stroke-dashoffset:0;stroke-opacity:1"
       d="m 7.122557,5.2136353 c 0.63637,0.274185 1.07952,0.906181 1.07952,1.6453778 v 0.3255615 c 0,0.270608 -0.21773,0.488343 -0.48834,0.488343 h 0.52917 c 0.27061,0 0.48834,-0.217735 0.48834,-0.488343 V 6.8590131 c 0,-0.7391968 -0.44315,-1.3711928 -1.07952,-1.6453778 z"
       id="path4017"
       inkscape:connector-curvature="0"
       sodipodi:nodetypes="ccccccccc" />
    <path
       style="opacity:1;fill:#f8f8f8;fill-opacity:1;stroke:none;stroke-width:0.5291667;stroke-linecap:round;stroke-linejoin:round;stroke-miterlimit:4;stroke-dasharray:none;stroke-dashoffset:0;stroke-opacity:1"
       d="m 5.577947,5.2136353 c -0.6365,0.2741279 -1.08003,0.906086 -1.08003,1.6453778 v 0.3255615 c 0,0.270608 0.21773,0.488343 0.48834,0.488343 h 0.52917 c -0.27061,0 -0.48835,-0.217735 -0.48835,-0.488343 V 6.8590131 c 0,-0.7392918 0.44354,-1.3712499 1.08004,-1.6453778 z"
       id="path4023"
       inkscape:connector-curvature="0"
       sodipodi:nodetypes="ccccccccc" />
    <path
       sodipodi:nodetypes="ccccccccccccc"
       inkscape:connector-curvature="0"
       id="path4038"
       d="m 12.170827,0.7937473 c 0.43974,0 0.79375,0.354012 0.79375,0.79375 v 1.5875 c 0,0.4397369 -0.35401,0.7937499 -0.79375,0.7937499 h -1.32085 c -0.0994,0.3527771 -0.33035,0.6688881 -0.67282,0.8666141 -0.19918,0.114472 -0.42273,0.1800781 -0.65216,0.1917189 0.20586,-0.31829 0.273,-0.6975901 0.20567,-1.058333 h -0.20567 c -0.43974,0 -0.79375,-0.354013 -0.79375,-0.7937499 v -1.5875 c 0,-0.439738 0.79375,-0.79375 0.79375,-0.79375 z"
       style="opacity:1;fill:#a8c5f7;fill-opacity:1;stroke:none;stroke-width:0.52916664;stroke-linecap:butt;stroke-linejoin:round;stroke-miterlimit:4;stroke-dasharray:none;stroke-dashoffset:0;stroke-opacity:1" />
    <path
       inkscape:connector-curvature="0"
       style="opacity:1;fill:#91b8fb;fill-opacity:1;stroke:none;stroke-width:0.52916664;stroke-linecap:butt;stroke-linejoin:round;stroke-miterlimit:4;stroke-dasharray:none;stroke-dashoffset:0;stroke-opacity:1"
       d="m 11.641667,0.7937503 c 0.43973,0 0.79375,0.354012 0.79375,0.79375 v 1.5875001 c 0,0.4397369 -0.35402,0.79375 -0.79375,0.79375 h 0.52916 c 0.43974,0 0.79375,-0.3540131 0.79375,-0.79375 V 1.5875003 c 0,-0.439738 -0.35401,-0.79375 -0.79375,-0.79375 z"
       id="path4061"
       sodipodi:nodetypes="ccccccccc" />
    <path
       style="opacity:1;fill:#e2e7fa;fill-opacity:1;stroke:none;stroke-width:0.52916664;stroke-linecap:round;stroke-linejoin:round;stroke-miterlimit:4;stroke-dasharray:none;stroke-dashoffset:0;stroke-opacity:1"
       d="m 7.6729174,4.4979157 c 10e-8,0.5845015 -0.4738322,1.0583336 -1.0583339,1.0583336 -0.5845017,0 -1.058334,-0.4738321 -1.0583339,-1.0583336 0,-0.5845015 0.4738322,-1.0583335 1.0583339,-1.0583335 0.5845017,0 1.0583339,0.473832 1.0583339,1.0583335 z"
       id="ellipse4026"
       inkscape:connector-curvature="0"
       sodipodi:nodetypes="ccccc" />
    <path
       style="opacity:1;fill:#c4d2f0;fill-opacity:1;stroke:none;stroke-width:0.52916664;stroke-linecap:round;stroke-linejoin:round;stroke-miterlimit:4;stroke-dasharray:none;stroke-dashoffset:0;stroke-opacity:1"
       d="m 6.349477,3.4742032 c 0.4671137,0.1203553 0.7937452,0.5413405 0.79427,1.0237099 -4.016e-4,0.4820699 -0.3265287,0.9029566 -0.79323,1.023711 0.086211,0.022613 0.1749334,0.034245 0.26406,0.03462 0.5845043,3.4e-6 1.0583403,-0.47383 1.05834,-1.0583341 -5e-7,-0.5845035 -0.4738363,-1.0583361 -1.05834,-1.0583298 -0.089475,2.904e-4 -0.1785521,0.011923 -0.2651,0.034623 z"
       id="ellipse4030"
       inkscape:connector-curvature="0"
       sodipodi:nodetypes="ccccccc" />
    <path
       style="opacity:1;fill:#f8f8f8;fill-opacity:1;stroke:none;stroke-width:0.52916664;stroke-linecap:round;stroke-linejoin:round;stroke-miterlimit:4;stroke-dasharray:none;stroke-dashoffset:0;stroke-opacity:1"
       d="m 5.556247,4.4979162 c -3e-7,0.5845002 0.4738297,1.0583319 1.05833,1.0583341 0.089475,-2.874e-4 0.1785521,-0.01192 0.2651,-0.03462 C 6.412567,5.4012711 6.0859402,4.9802864 6.085417,4.4979196 6.085819,4.01585 6.411946,3.5949637 6.878647,3.4742094 c -0.086214,-0.022614 -0.17494,-0.034246 -0.26407,-0.034623 -0.5844999,-9e-7 -1.0583297,0.4738302 -1.05833,1.0583299 z"
       id="ellipse4035"
       inkscape:connector-curvature="0"
       sodipodi:nodetypes="ccccccc" />
    <path
       style="opacity:1;fill:#91b8fb;fill-opacity:1;stroke:none;stroke-width:0.52916664;stroke-linecap:butt;stroke-linejoin:round;stroke-miterlimit:4;stroke-dasharray:none;stroke-dashoffset:0;stroke-opacity:1"
       d="m 10.847917,3.7041673 h -0.26718 c -0.26199,0 -0.26096,0.2645831 -0.26096,0.2645831 0,0.2645828 -0.32932,0.6688878 -0.67179,0.8666138 -0.009,0.0049 -0.0178,0.0082 -0.0264,0.01292 -0.0282,0.06109 -0.0594,0.1212279 -0.0966,0.1787999 0.22943,-0.011639 0.45299,-0.07725 0.65216,-0.191719 0.34007,-0.1963441 0.5697,-0.5095819 0.6705,-0.862997 z"
       id="path4046"
       inkscape:connector-curvature="0"
       sodipodi:nodetypes="ccccccccc" />
    <path
       style="opacity:1;fill:#f8f8f8;fill-opacity:1;stroke:none;stroke-width:0.52916664;stroke-linecap:butt;stroke-linejoin:round;stroke-miterlimit:4;stroke-dasharray:none;stroke-dashoffset:0;stroke-opacity:1"
       d="m 9.524997,0.7937503 c -0.43974,0 -0.79375,0.354012 -0.79375,0.79375 v 1.5875001 c 0,0.4397369 0.35401,0.79375 0.79375,0.79375 h 0.2005 v -0.07235 C 9.451167,3.7716824 9.260417,3.4970193 9.260417,3.1749974 v -1.5875 c 0,-0.439738 0.35401,-0.79375 0.79375,-0.79375 z"
       id="path4066"
       inkscape:connector-curvature="0"
       sodipodi:nodetypes="cccccccccc" />
    <path
       style="color:#000000;font-style:normal;font-variant:normal;font-weight:normal;font-stretch:normal;font-size:medium;line-height:normal;font-family:sans-serif;font-variant-ligatures:normal;font-variant-position:normal;font-variant-caps:normal;font-variant-numeric:normal;font-variant-alternates:normal;font-feature-settings:normal;text-indent:0;text-align:start;text-decoration:none;text-decoration-line:none;text-decoration-style:solid;text-decoration-color:#000000;letter-spacing:normal;word-spacing:normal;text-transform:none;writing-mode:lr-tb;direction:ltr;text-orientation:mixed;dominant-baseline:auto;baseline-shift:baseline;text-anchor:start;white-space:normal;shape-padding:0;clip-rule:nonzero;display:inline;overflow:visible;visibility:visible;opacity:1;isolation:auto;mix-blend-mode:normal;color-interpolation:sRGB;color-interpolation-filters:linearRGB;solid-color:#000000;solid-opacity:1;vector-effect:none;fill:#66a0fe;fill-opacity:1;fill-rule:nonzero;stroke:none;stroke-width:0.52916664;stroke-linecap:round;stroke-linejoin:round;stroke-miterlimit:4;stroke-dasharray:none;stroke-dashoffset:0;stroke-opacity:1;color-rendering:auto;image-rendering:auto;shape-rendering:auto;text-rendering:auto;enable-background:accumulate"
       d="m 9.5255164,0.52916696 c -0.3929002,0 -0.7288803,0.214738 -0.9115804,0.52865004 H 2.6463462 c -0.58174,0 -1.05885,0.466775 -1.05885,1.05885 v 3.8777988 c -0.38246,0.1258761 -0.6386,0.3652301 -0.80254,0.634587 -0.19235,0.316049 -0.25579,0.6627342 -0.25579,0.952913 V 9.834025 c 0,0.468449 0.21301,1.044103 0.41237,1.603519 0.0997,0.279707 0.19755,0.550856 0.26924,0.777214 0.0717,0.226352 0.11162,0.418062 0.11162,0.484208 v 0.996838 c -0.16059,0.14551 -0.26407,0.359446 -0.26407,0.591178 v 1.324467 c 0,0.443423 0.35808,0.792717 0.79324,0.792717 h 3.7052 c 0.4351498,0 0.7930599,-0.350325 0.79323,-0.792717 v -1.324467 c 0,-0.313221 -0.1832501,-0.590764 -0.4552701,-0.717785 0.0446,-0.1958 0.1379202,-0.424098 0.2418501,-0.715719 0.1215498,-0.341088 0.24921,-0.746861 0.28732,-1.210779 h 4.0855408 c 0.0381,0.463918 0.16577,0.869691 0.28732,1.210779 0.10393,0.291621 0.19724,0.519919 0.24184,0.715719 -0.27202,0.127021 -0.45527,0.404564 -0.45527,0.717785 v 1.324467 c 1.7e-4,0.442392 0.35809,0.792717 0.79324,0.792717 h 3.7052 c 0.43516,0 0.79323,-0.349294 0.79323,-0.792717 v -1.324467 c 0,-0.231732 -0.10348,-0.445668 -0.26407,-0.591178 v -0.996838 c 0,-0.06615 0.0399,-0.257856 0.11162,-0.484208 0.0717,-0.226358 0.16954,-0.497507 0.26924,-0.777214 0.19936,-0.559416 0.41238,-1.13507 0.41238,-1.603519 V 7.5819658 c 0,-0.2901788 -0.0634,-0.636864 -0.2558,-0.952913 -0.16394,-0.2693569 -0.42008,-0.5087109 -0.80254,-0.634587 V 2.116667 c 0,-0.592075 -0.47711,-1.05885 -1.05885,-1.05885 h -1.20509 c -0.18202,-0.31391204 -0.51718,-0.52865004 -0.91209,-0.52865004 z m 0,0.52968304 h 2.6442806 c 0.29153,0 0.52904,0.231431 0.52917,0.529167 l 10e-4,1.588017 c 0,0.2915349 -0.23247,0.528339 -0.5302,0.5281329 h -1.32033 c -0.11781,1.67e-4 -0.22114,0.07903 -0.25374,0.192236 -0.1026,0.3477529 -0.32362,0.600856 -0.6232106,0.747241 0.0551,-0.2177489 0.0648,-0.470553 0.0176,-0.7234698 -0.0239,-0.1246391 -0.13251,-0.2159492 -0.25942,-0.2160072 h -0.20515 c -0.29043,0 -0.5291701,-0.2303989 -0.5291701,-0.5281329 V 1.588017 c 0,-0.297736 0.2376301,-0.529167 0.5291701,-0.529167 z M 8.466666,2.11615 H 3.4395762 c -0.44393,-2e-5 -0.79375,0.358072 -0.79375,0.793233 v 3.9692669 c -0.19328,0 -0.37216,0.05047 -0.52865,0.1421101 l -5.1e-4,-4.904093 c -3e-5,-0.292566 0.23194,-0.52918 0.52968,-0.529167 L 8.466666,1.587759 Z M 14.286977,1.5875 c 0.29774,0 0.52972,0.236601 0.52969,0.529167 L 14.816138,7.02076 C 14.659668,6.92912 14.480768,6.8786499 14.287488,6.8786499 V 2.909383 c 0,-0.435161 -0.34982,-0.793253 -0.79375,-0.793233 H 13.228647 V 1.587759 Z M 9.7895764,2.116667 c -0.14612,0 -0.26458,0.118458 -0.26458,0.264583 0,0.146126 0.11846,0.264584 0.26458,0.264584 0.14613,0 0.2645906,-0.118458 0.2645906,-0.264584 0,-0.146125 -0.1184606,-0.264583 -0.2645906,-0.264583 z m 1.0583406,0 c -0.14613,0 -0.26459,0.118458 -0.26459,0.264583 0,0.146126 0.11846,0.264584 0.26459,0.264584 0.14612,0 0.26458,-0.118458 0.26458,-0.264584 0,-0.146125 -0.11846,-0.264583 -0.26458,-0.264583 z m 1.05833,0 c -0.14613,0 -0.26458,0.118458 -0.26458,0.264583 0,0.146126 0.11845,0.264584 0.26458,0.264584 0.14612,0 0.26458,-0.118458 0.26458,-0.264584 0,-0.146125 -0.11846,-0.264583 -0.26458,-0.264583 z m -3.439581,0.52865 v 0.530717 c 0,0.5509649 0.4310103,1.0368579 1.0231904,1.0557489 0.007,0.20121 -0.0529,0.4436721 -0.18707,0.6511231 -0.11772,0.1815158 0.0201,0.419952 0.23616,0.4082439 0.27099,-0.01375 0.5340006,-0.09153 0.7694606,-0.226859 0.32825,-0.1895121 0.5936,-0.485222 0.72761,-0.830957 h 1.13378 c 0.58174,-4.763e-4 1.05937,-0.467292 1.05937,-1.0572999 V 2.645317 h 0.26458 c 0.15115,-7e-6 0.26408,0.119112 0.26407,0.264066 l -5.29e-4,4.110861 c -0.318291,0.1863209 -0.529161,0.5290489 -0.529161,0.9172559 l 10e-4,1.4474571 c -0.0219,0.02961 -0.0572,0.07162 -0.10232,0.1250569 -0.0957,0.1133501 -0.229999,0.263594 -0.36536,0.4252971 -0.0325,0.03884 -0.0642,0.07953 -0.0966,0.119373 -2.8001316,-9e-4 -5.5973814,0 -8.3963912,0 -0.0324,-0.03984 -0.0641,-0.080531 -0.0966,-0.119373 C 4.036496,9.7736079 3.9022258,9.623364 3.8065059,9.5100139 c -0.0451,-0.05344 -0.0804,-0.09545 -0.1023199,-0.1250569 l 0.00101,-1.4474571 c 0,-0.388207 -0.21087,-0.730935 -0.5291698,-0.9172559 L 3.1755247,2.909383 c 1e-5,-0.144954 0.1129101,-0.264073 0.2640557,-0.264066 z M 6.615096,3.175 c -0.7329199,0 -1.3229198,0.5954239 -1.3229198,1.3229169 0,0.181873 0.0357,0.351417 0.10232,0.509529 -0.6911999,0.333856 -1.16117,1.038342 -1.16117,1.8520841 v 0.3240109 c 0,0.4126111 0.3299798,0.753959 0.7539601,0.753959 h 3.2550999 c 0.4239799,0 0.7539601,-0.3413479 0.7539601,-0.753959 V 6.85953 c 0,-0.8137421 -0.4699601,-1.5182281 -1.1611703,-1.8520841 0.0666,-0.158112 0.1023202,-0.327656 0.1023202,-0.509529 C 7.9374962,3.7704239 7.3480162,3.175 6.615096,3.175 Z m 0,0.5301999 c 0.4366001,0 0.7932301,0.3512071 0.7932301,0.792717 0,0.44151 -0.35766,0.793233 -0.7932301,0.793233 -0.4355697,0 -0.7937499,-0.351723 -0.7937499,-0.793233 0,-0.4415099 0.3571501,-0.792717 0.7937499,-0.792717 z m -0.9182898,1.74563 c 0.2326798,0.225202 0.55994,0.3700039 0.9182898,0.3700039 0.3583501,0 0.6850901,-0.1448019 0.91777,-0.3700039 0.5277303,0.2212631 0.9338,0.7506049 0.9338,1.4087001 v 0.3240109 c 0,0.1212972 -0.0957,0.2247932 -0.2242798,0.2247932 H 4.9872863 c -0.1286002,0 -0.2242701,-0.1034971 -0.2242701,-0.2247932 V 6.85953 c 0,-0.6580952 0.40606,-1.187437 0.93379,-1.4087001 z m -4.10931,4.074687 c 0.008,0.3450381 0.52917,0.345122 0.52917,0 v -1.588017 c -1e-4,-0.2977351 0.23925,-0.5291658 0.52968,-0.5291658 0.28896,0 0.52865,0.2314307 0.52865,0.5291658 v 1.509985 c 0,0.06462 0.0273,0.12924 0.0439,0.1596811 0.0166,0.03044 0.0344,0.05482 0.0527,0.0801 0.0367,0.05056 0.0794,0.1035191 0.1307499,0.1643309 0.10271,0.1216192 0.23406,0.2693741 0.3632801,0.4237461 0.1292199,0.154369 0.2569998,0.314962 0.3457199,0.451135 0.0887,0.136171 0.1219502,0.221805 0.1219502,0.24598 v 0.933793 c 0.008,0.345038 0.5215099,0.345038 0.5291698,0 v -0.26355 h 1.1296502 c -0.0366,0.375822 -0.1418302,0.718989 -0.2537402,1.033012 -0.1047999,0.294138 -0.2198399,0.574427 -0.2697498,0.818555 H 1.8515362 v -0.7953 c 0,-0.198438 -0.0598,-0.400832 -0.13695,-0.644405 -0.0771,-0.243579 -0.17616,-0.517686 -0.27492,-0.794784 -0.1975,-0.554199 -0.38085,-1.143908 -0.38085,-1.4257521 v -2.252059 c 0,-0.208761 0.051,-0.468358 0.17828,-0.677478 0.0817,-0.1342671 0.19358,-0.2531999 0.350385,-0.3374481 z M 15.345827,6.5670408 c 0.15679,0.08425 0.26867,0.2031802 0.35037,0.3374472 0.12728,0.2091198 0.17828,0.4687171 0.17828,0.6774778 V 9.834025 c 0,0.281844 -0.18335,0.871553 -0.38085,1.425752 -0.0988,0.277098 -0.19782,0.551205 -0.27492,0.794784 -0.0771,0.243573 -0.13694,0.445967 -0.13694,0.644405 v 0.7953 h -3.5171 c -0.0499,-0.244128 -0.16494,-0.524417 -0.26975,-0.818555 -0.11191,-0.314023 -0.21713,-0.65719 -0.25373,-1.033012 h 1.12964 v 0.26355 c 0.008,0.345038 0.52117,0.345038 0.52917,0 v -0.933793 c 0,-0.02417 0.0333,-0.109809 0.12196,-0.24598 0.0887,-0.136173 0.21649,-0.296766 0.34571,-0.451135 0.12922,-0.154372 0.26058,-0.3021272 0.36329,-0.4237461 0.0514,-0.06081 0.094,-0.1137719 0.13074,-0.1643311 0.0183,-0.025281 0.0361,-0.04966 0.0527,-0.0801 0.0166,-0.03044 0.0439,-0.09506 0.0439,-0.1596811 v -1.509985 c 0,-0.2977348 0.23969,-0.5291659 0.52865,-0.5291659 0.29043,0 0.52979,0.2314311 0.52969,0.5291659 V 9.525515 c 0,0.345122 0.52116,0.3450379 0.52916,0 z m -5.0276,1.3704591 C 9.9733164,7.937501 9.6812864,8.1571088 9.5699564,8.4666668 H 4.4979161 c -0.35287,0 -0.35287,0.5296832 0,0.5296832 h 5.0730703 c 0.10864,0.3058379 0.39902,0.5286499 0.7472406,0.5286499 0.34822,1e-6 0.64015,-0.222812 0.74931,-0.5286499 h 1.36788 c 0.35286,0 0.35286,-0.5296832 0,-0.5296832 h -1.36788 c -0.11121,-0.31057 -0.40436,-0.5291669 -0.74931,-0.5291669 z m 0,0.5291669 c 0.14203,0 0.2651,0.1142921 0.2651,0.2635502 0,0.149257 -0.11997,0.265617 -0.2651,0.265617 -0.14512,-1e-6 -0.26406,-0.11636 -0.26406,-0.265617 0,-0.1492581 0.12204,-0.2635502 0.26406,-0.2635502 z M 4.6420863,10.583333 c 2.5496598,4.5e-4 5.0983101,2.43e-4 7.6491507,0 -0.039,0.06753 -0.12041,0.236266 -0.12041,0.389123 v 0.141077 c -2.4720506,-0.0018 -4.938561,0 -7.4083307,0 v -0.141077 c 0,-0.152857 -0.0814,-0.321589 -0.12041,-0.389123 z m 0.9146799,3.439583 c 0.1418399,-2.1e-5 0.26412,0.112918 0.2640599,0.264066 v 1.324467 c 0,0.14083 -0.1129098,0.26355 -0.2640599,0.26355 h -3.7052 c -0.14392,0 -0.26355,-0.112401 -0.26355,-0.26355 v -1.324467 c 0,-0.143915 0.1124,-0.263549 0.26355,-0.263549 z m 9.5250008,5.29e-4 c 0.15115,0 0.26355,0.119634 0.26355,0.263549 v 1.324467 c 0,0.151124 -0.11963,0.26355 -0.26355,0.26355 h -3.7052 c -0.15115,0 -0.26407,-0.12272 -0.26407,-0.26355 v -1.324467 c -6e-5,-0.151148 0.12223,-0.264087 0.26407,-0.264072 z M 2.3812462,14.816666 c -0.14613,0 -0.26458,0.118459 -0.26458,0.264583 0,0.146127 0.11845,0.264583 0.26458,0.264583 0.14612,0 0.26458,-0.118456 0.26458,-0.264583 0,-0.146124 -0.11846,-0.264583 -0.26458,-0.264583 z m 12.1708308,0 c -0.14612,0 -0.26458,0.118459 -0.26458,0.264583 0,0.146127 0.11846,0.264583 0.26458,0.264583 0.14613,0 0.26459,-0.118456 0.26459,-0.264583 0,-0.146124 -0.11846,-0.264583 -0.26459,-0.264583 z"
       id="path4320"
       inkscape:connector-curvature="0"
       sodipodi:nodetypes="ccccccccccccccccccccccccccccccccccccccccccccccccccccccccccccccccccccccccccccccccccccccccccccccccccccccccccccccccccccccccccccccccccccccccccccccccccccccccccccccccccccccccccccccccccccccccccccccccccccccccccccccccccccccccccccccccccccccccccccccccccccccccc" />
  </g>
</svg>
